<?xml version="1.0" standalone="no"?>
<!DOCTYPE svg PUBLIC "-//W3C//DTD SVG 1.1//EN" "http://www.w3.org/Graphics/SVG/1.1/DTD/svg11.dtd" >
<svg xmlns="http://www.w3.org/2000/svg" xmlns:xlink="http://www.w3.org/1999/xlink" version="1.1">
<metadata>
Created by FontForge 20170731 at Thu Dec 31 16:23:55 2020
 By Aleksey,,,
</metadata>
<defs>
<font id="NotoSansJP-Medium-Alphabetic" horiz-adv-x="2048" vert-adv-y="2048" >
  <font-face 
    font-family="NotoSansJP-Medium-Alphabetic"
    font-weight="500"
    font-stretch="normal"
    units-per-em="2048"
    panose-1="2 0 6 3 0 0 0 0 0 0"
    ascent="1638"
    descent="-410"
    bbox="43 -506 2001 1657"
    underline-thickness="102"
    underline-position="-307"
    unicode-range="U+FF21-FF5A"
  />
<missing-glyph horiz-adv-x="748" 
d="M68 0v1365h544v-1365h-544zM136 68h408v1229h-408v-1229z" />
    <glyph glyph-name=".notdef" horiz-adv-x="748" 
d="M68 0v1365h544v-1365h-544zM136 68h408v1229h-408v-1229z" />
    <glyph glyph-name=".null" horiz-adv-x="0" vert-adv-y="0" 
 />
    <glyph glyph-name="nonmarkingreturn" horiz-adv-x="682" 
 />
    <glyph glyph-name="uniE6C7" unicode="&#xff21;" 
d="M305 0l559 1511h299l568 -1511h-263l-151 428h-610l-150 -428h-252zM760 612h504l-76 211q-29 89 -87.5 258t-84.5 246h-8q-32 -101 -95.5 -286.5t-74.5 -217.5z" />
    <glyph glyph-name="uniE6C8" unicode="&#xff22;" 
d="M475 0v1511h531q284 0 434.5 -87.5t150.5 -284.5q0 -113 -60.5 -203t-174.5 -125v-10q154 -27 240.5 -119t86.5 -240q0 -227 -159.5 -334.5t-472.5 -107.5h-576zM713 879h274q186 0 275.5 55t89.5 170q0 120 -85 171.5t-268 51.5h-286v-448zM713 186h321q212 0 312 62
t100 207q0 127 -100 185t-316 58h-317v-512z" />
    <glyph glyph-name="uniE6C9" unicode="&#xff23;" 
d="M1161 -25q-217 0 -386 90.5t-267 268t-98 418.5q0 180 56 327.5t156 247.5t240.5 154.5t306.5 54.5q150 0 274.5 -53t213.5 -137l-133 -154q-156 139 -350 139q-236 0 -377.5 -155t-141.5 -418q0 -264 141.5 -419t377.5 -155q215 0 391 166l131 -155q-220 -220 -535 -220
z" />
    <glyph glyph-name="uniE6CA" unicode="&#xff24;" 
d="M440 0v1511h430q396 0 609 -190.5t213 -556.5q0 -367 -211.5 -565.5t-595.5 -198.5h-445zM674 197h184q285 0 436.5 142t151.5 425q0 281 -150.5 418t-437.5 137h-184v-1122z" />
    <glyph glyph-name="uniE6CB" unicode="&#xff25;" 
d="M555 0v1511h1010v-200h-772v-422h608v-203h-608v-483h796v-203h-1034z" />
    <glyph glyph-name="uniE6CC" unicode="&#xff26;" 
d="M590 0v1511h1014v-200h-777v-461h617v-203h-617v-647h-237z" />
    <glyph glyph-name="uniE6CD" unicode="&#xff27;" 
d="M1137 -25q-229 0 -406 90.5t-279 268t-102 418.5q0 179 60 327.5t165 248.5t249.5 155t312.5 55q300 0 512 -192l-138 -154q-76 65 -162 102t-204 37q-241 0 -395 -156.5t-154 -416.5q0 -266 151 -421t414 -155q83 0 163.5 20.5t125.5 55.5v348h-356v197h573v-651
q-204 -177 -530 -177z" />
    <glyph glyph-name="uniE6CE" unicode="&#xff28;" 
d="M395 0v1511h240v-618h780v618h238v-1511h-238v686h-780v-686h-240z" />
    <glyph glyph-name="uniE6CF" unicode="&#xff29;" 
d="M487 0v201h418v1108h-418v202h1078v-202h-422v-1108h422v-201h-1078z" />
    <glyph glyph-name="uniE6D0" unicode="&#xff2a;" 
d="M963 -25q-322 0 -492 256l168 123q114 -172 293 -172q272 0 272 303v1026h240v-1046q0 -104 -29 -191.5t-86 -155t-150.5 -105.5t-215.5 -38z" />
    <glyph glyph-name="uniE6D1" unicode="&#xff2b;" 
d="M475 0v1511h238v-731h8l688 731h274l-540 -585l624 -926h-268l-500 752l-286 -301v-451h-238z" />
    <glyph glyph-name="uniE6D2" unicode="&#xff2c;" 
d="M600 0v1511h240v-1308h751v-203h-991z" />
    <glyph glyph-name="uniE6D3" unicode="&#xff2d;" 
d="M291 0v1511h276l334 -766q12 -31 54.5 -138.5t66.5 -166.5h10q14 34 56 141.5t65 163.5l326 766h276v-1511h-221v745q0 169 31 472h-11l-145 -353l-313 -719h-148l-315 719l-144 353h-10q27 -308 27 -472v-745h-215z" />
    <glyph glyph-name="uniE6D4" unicode="&#xff2e;" 
d="M408 0v1511h241l582 -876l205 -332h10q-31 269 -31 506v702h227v-1511h-243l-582 881l-201 329h-10q27 -356 27 -501v-709h-225z" />
    <glyph glyph-name="uniE6D5" unicode="&#xff2f;" 
d="M1024 -25q-161 0 -297 55t-233.5 155.5t-152 248.5t-54.5 328t54 326t151.5 244t233.5 151t298 53t298 -53t233.5 -151.5t151.5 -244.5t54 -325q0 -363 -200.5 -575t-536.5 -212zM1024 182q224 0 359 157.5t135 422.5q0 262 -135 415.5t-359 153.5t-359 -153.5
t-135 -415.5q0 -264 136 -422t358 -158z" />
    <glyph glyph-name="uniE6D6" unicode="&#xff30;" 
d="M498 0v1511h508q120 0 217 -14.5t178 -48t135.5 -86t84.5 -130t30 -177.5q0 -161 -81.5 -271.5t-222 -161.5t-331.5 -51h-281v-571h-237zM735 764h256q214 0 319 71t105 220q0 147 -106.5 206.5t-327.5 59.5h-246v-557z" />
    <glyph glyph-name="uniE6D7" unicode="&#xff31;" 
d="M1561 -393q-239 0 -404.5 102t-249.5 273q-282 39 -452 247.5t-170 532.5q0 238 94 415t259.5 269t381.5 92t382.5 -92t261.5 -269t95 -415q0 -315 -163 -521t-431 -251q55 -92 170 -139.5t256 -47.5q94 0 189 31l45 -180q-103 -47 -264 -47zM1020 170q224 0 360 159.5
t136 432.5q0 262 -136.5 415.5t-359.5 153.5t-357.5 -153.5t-134.5 -415.5q0 -273 134.5 -432.5t357.5 -159.5z" />
    <glyph glyph-name="uniE6D8" unicode="&#xff32;" 
d="M496 0v1511h536q615 0 615 -438q0 -168 -100 -276.5t-275 -147.5l438 -649h-272l-402 608h-313v-608h-227zM723 799h281q198 0 301.5 68.5t103.5 205.5q0 133 -101 190.5t-304 57.5h-281v-522z" />
    <glyph glyph-name="uniE6D9" unicode="&#xff33;" 
d="M1042 -25q-183 0 -342 59t-278 167l139 168q95 -85 225.5 -136t257.5 -51q150 0 247.5 55.5t97.5 153.5q0 40 -17 73.5t-40.5 56.5t-67.5 46t-79.5 37t-94.5 35l-234 82q-53 19 -99.5 42t-95 58.5t-83 76.5t-56.5 97.5t-22 120.5q0 185 155.5 303.5t395.5 118.5
q157 0 294.5 -52t239.5 -145l-129 -155q-183 145 -407 145q-132 0 -220 -52t-88 -142q0 -24 6.5 -45t21.5 -39t29 -32.5t41.5 -29.5t44.5 -24.5t52 -23t51.5 -19.5t54.5 -19l230 -82q360 -123 360 -413q0 -191 -161.5 -313t-428.5 -122z" />
    <glyph glyph-name="uniE6DA" unicode="&#xff34;" 
d="M903 0v1313h-526v198h1292v-198h-526v-1313h-240z" />
    <glyph glyph-name="uniE6DB" unicode="&#xff35;" 
d="M1026 -25q-140 0 -251 36.5t-196.5 114.5t-131.5 210t-46 313v862h234v-878q0 -99 20 -177t55 -129t85 -84t107 -47t124 -14q85 0 154 23.5t124.5 74t86 140.5t30.5 213v878h238v-862q0 -180 -46.5 -312t-133 -210t-199 -115t-254.5 -37z" />
    <glyph glyph-name="uniE6DC" unicode="&#xff36;" 
d="M885 0l-547 1511h252l270 -784q19 -57 51 -156.5t58.5 -180t54.5 -157.5h10q33 95 87 258t79 236l266 784h244l-547 -1511h-278z" />
    <glyph glyph-name="uniE6DD" unicode="&#xff37;" 
d="M410 0l-367 1511h244l174 -776q18 -81 53 -242.5t53 -242.5h8q79 296 127 485l224 776h209l227 -782q22 -85 65 -246t62 -233h10q86 428 96 479l179 782h227l-354 -1511h-297l-238 838q-28 109 -84 350h-10q-65 -281 -84 -350l-234 -838h-290z" />
    <glyph glyph-name="uniE6DE" unicode="&#xff38;" 
d="M379 0l500 774l-467 737h264l219 -356q68 -115 137 -225h8q83 146 129 225l213 356h252l-467 -741l502 -770h-272l-232 375q-23 38 -72.5 117.5t-76.5 125.5h-8q-26 -44 -74 -124t-70 -119l-227 -375h-258z" />
    <glyph glyph-name="uniE6DF" unicode="&#xff39;" 
d="M905 0v575l-522 936h254l215 -399q118 -235 170 -332h8q135 254 172 332l215 399h248l-522 -936v-575h-238z" />
    <glyph glyph-name="uniE6E0" unicode="&#xff3a;" 
d="M436 0v143l864 1170h-798v198h1106v-141l-869 -1167h891v-203h-1194z" />
    <glyph glyph-name="uniE6E7" unicode="&#xff41;" 
d="M1298 309v260q-160 -11 -271 -33t-175.5 -55t-92.5 -72.5t-28 -91.5q0 -80 62 -118.5t159 -38.5q167 0 346 149zM1323 145h-6q-224 -170 -432 -170q-165 0 -273 89t-108 235q0 127 80.5 212t255 136t458.5 72q-5 111 -72.5 178.5t-207.5 67.5q-159 0 -379 -125l-90 157
q255 158 512 158q230 0 352.5 -124t122.5 -353v-678h-195z" />
    <glyph glyph-name="uniE6E8" unicode="&#xff42;" 
d="M1085 -25q-206 0 -370 142h-8l-23 -117h-186v1632h237v-434l-8 -192q203 149 401 149q238 0 367 -155.5t129 -415.5q0 -141 -42.5 -257t-116 -192.5t-171 -118t-209.5 -41.5zM1032 172q149 0 248.5 109t99.5 299q0 177 -80.5 277.5t-242.5 100.5q-161 0 -322 -137v-542
q138 -107 297 -107z" />
    <glyph glyph-name="uniE6E9" unicode="&#xff43;" 
d="M1128 -25q-178 0 -318 68.5t-222 203.5t-82 316q0 138 51 251t138.5 187t202.5 114t245 40q249 0 416 -160l-115 -149q-133 112 -289 112q-180 0 -292.5 -109t-112.5 -286t110 -284t289 -107q173 0 334 129l100 -154q-96 -84 -214 -128t-241 -44z" />
    <glyph glyph-name="uniE6EA" unicode="&#xff44;" 
d="M940 -25q-231 0 -374.5 158t-143.5 428q0 134 45 248t120 189t172 117t202 42q111 0 194.5 -32t167.5 -97l-12 186l2 418h237v-1632h-190l-23 123h-8q-151 -148 -389 -148zM1004 172q170 0 309 139v545q-139 102 -301 102q-145 0 -245.5 -108t-100.5 -285
q0 -183 94.5 -288t243.5 -105z" />
    <glyph glyph-name="uniE6EB" unicode="&#xff45;" 
d="M702 666h680q0 146 -83 226.5t-236 80.5q-136 0 -238 -82t-123 -225zM1473 256l79 -154q-194 -127 -458 -127q-177 0 -320 69t-228 204t-85 315q0 134 50.5 247.5t134.5 187.5t191 115.5t222 41.5q253 0 396.5 -146t143.5 -386q0 -53 -10 -121h-887q10 -159 126.5 -250.5
t293.5 -91.5q185 0 351 96z" />
    <glyph glyph-name="uniE6EC" unicode="&#xff46;" 
d="M870 0v940h-315v178l315 12v74q0 209 117 331t354 122q168 0 330 -64l-53 -174q-118 49 -252 49q-262 0 -262 -260v-78h446v-190h-446v-940h-234z" />
    <glyph glyph-name="uniE6ED" unicode="&#xff47;" 
d="M1176 -27h-220q-108 0 -172 19q-122 -71 -122 -166q0 -81 95 -128.5t269 -47.5q173 0 281 60t108 145q0 66 -58 92t-181 26zM1001 508q106 0 178 67t72 177q0 106 -73.5 172.5t-176.5 66.5q-107 0 -179 -66t-72 -173q0 -110 72 -177t179 -67zM944 162h260
q222 0 330 -64.5t108 -208.5q0 -167 -177 -281t-466 -114q-252 0 -395 78.5t-143 226.5q0 66 47.5 129.5t136.5 112.5v10q-117 63 -117 187q0 55 38 112t104 101v8q-148 113 -148 293q0 122 67 215.5t175 140.5t237 47q111 0 187 -25h459v-178h-275q92 -85 92 -207
q0 -182 -130.5 -285.5t-332.5 -103.5q-110 0 -200 37q-78 -53 -78 -114q0 -117 221 -117z" />
    <glyph glyph-name="uniE6EE" unicode="&#xff48;" 
d="M512 0v1632h236v-428l-11 -227q208 180 432 180q187 0 286 -113t99 -335v-709h-235v680q0 146 -61.5 208t-180.5 62q-84 0 -161.5 -36.5t-167.5 -114.5v-799h-236z" />
    <glyph glyph-name="uniE6EF" unicode="&#xff49;" 
d="M907 0v1130h238v-1130h-238zM1024 1341q-73 0 -119.5 43t-46.5 113q0 69 47 112.5t119 43.5t119 -43.5t47 -112.5q0 -70 -46.5 -113t-119.5 -43z" />
    <glyph glyph-name="uniE6F0" unicode="&#xff4a;" 
d="M780 -487q-174 0 -331 77l73 174q125 -61 250 -61q147 0 204.5 70t57.5 215v1142h240v-1130q0 -109 -24.5 -193.5t-79.5 -152.5t-153.5 -104.5t-236.5 -36.5zM1151 1341q-73 0 -118.5 43t-45.5 113q0 69 46 112.5t118 43.5q73 0 119.5 -43.5t46.5 -112.5q0 -70 -46 -113
t-120 -43z" />
    <glyph glyph-name="uniE6F1" unicode="&#xff4b;" 
d="M559 0v1632h232v-1057h8l530 553h264l-438 -454l494 -674h-263l-374 518l-221 -227v-291h-232z" />
    <glyph glyph-name="uniE6F2" unicode="&#xff4c;" 
d="M1262 -25q-190 0 -292 111t-102 317v1229h240v-1245q0 -217 211 -217q82 0 201 45l57 -176q-64 -23 -101.5 -34t-94.5 -20.5t-119 -9.5z" />
    <glyph glyph-name="uniE6F3" unicode="&#xff4d;" 
d="M135 0v1130h193l20 -161h6q97 88 196.5 137t215.5 49q257 0 350 -207q224 207 430 207q379 0 379 -446v-709h-235v680q0 140 -57.5 205t-174.5 65q-147 0 -311 -151v-799h-238v680q0 140 -56.5 205t-174.5 65q-146 0 -307 -151v-799h-236z" />
    <glyph glyph-name="uniE6F4" unicode="&#xff4e;" 
d="M510 0v1130h190l21 -159h6q104 88 208.5 137t229.5 49q197 0 295.5 -115t98.5 -333v-709h-246v680q0 143 -60 206.5t-180 63.5q-87 0 -161 -35.5t-169 -115.5v-799h-233z" />
    <glyph glyph-name="uniE6F5" unicode="&#xff4f;" 
d="M1024 -25q-117 0 -224 40.5t-189.5 114t-131.5 186t-49 247.5q0 137 49 251t131.5 187.5t189 113.5t224.5 40t224.5 -40t189 -113.5t131.5 -187.5t49 -251q0 -135 -49 -247.5t-131.5 -186t-189.5 -114t-224 -40.5zM1024 172q159 0 252.5 106.5t93.5 284.5t-93.5 286.5
t-252.5 108.5t-252.5 -108.5t-93.5 -286.5t93.5 -284.5t252.5 -106.5z" />
    <glyph glyph-name="uniE6F6" unicode="&#xff50;" 
d="M498 -457v1587h194l19 -126h6q211 153 409 153q240 0 368 -154t128 -421q0 -141 -42.5 -256.5t-116 -191.5t-172 -117.5t-210.5 -41.5q-193 0 -356 123l8 -153v-402h-235zM1032 172q153 0 249.5 107.5t96.5 298.5q0 380 -321 380q-152 0 -324 -137v-540
q136 -109 299 -109z" />
    <glyph glyph-name="uniE6F7" unicode="&#xff51;" 
d="M1311 -457l2 383l12 193q-167 -144 -381 -144q-237 0 -378.5 155t-141.5 431q0 134 45 248t120 189t172.5 117t203.5 42q107 0 194 -34.5t174 -104.5h10l23 112h184v-1587h-239zM1001 172q178 0 312 137v547q-126 102 -303 102q-142 0 -242 -108t-100 -285
q0 -188 90 -290.5t243 -102.5z" />
    <glyph glyph-name="uniE6F8" unicode="&#xff52;" 
d="M647 0v1130h195l20 -260h6q87 137 213 211t275 74q135 0 233 -45l-61 -201q-64 21 -105.5 30t-99.5 9q-271 0 -440 -311v-637h-236z" />
    <glyph glyph-name="uniE6F9" unicode="&#xff53;" 
d="M1038 -25q-154 0 -300 48t-255 124l111 152q209 -145 450 -145q134 0 204.5 42t70.5 107q0 62 -81 108.5t-267 92.5q-88 22 -160 50.5t-133 68t-95 91.5t-34 113q0 144 130 236t359 92q129 0 251 -40.5t216 -104.5l-110 -148q-173 115 -353 115q-254 0 -254 -139
q0 -58 83 -99.5t245 -83.5q224 -56 331 -132t107 -206q0 -147 -137.5 -244.5t-378.5 -97.5z" />
    <glyph glyph-name="uniE6FA" unicode="&#xff54;" 
d="M1237 -25q-124 0 -213 33.5t-141 98.5t-75.5 150t-23.5 196v487h-309v178l320 12l28 312h197v-312h530v-190h-530v-489q0 -149 61.5 -218t208.5 -69q126 0 258 47l47 -172q-183 -64 -358 -64z" />
    <glyph glyph-name="uniE6FB" unicode="&#xff55;" 
d="M881 -25q-187 0 -284 115.5t-97 331.5v708h235v-679q0 -143 60.5 -207t177.5 -64q88 0 165.5 40t159.5 128v782h236v-1130h-193l-20 174h-8q-196 -199 -432 -199z" />
    <glyph glyph-name="uniE6FC" unicode="&#xff56;" 
d="M893 0l-457 1130h242l229 -608q5 -13 119 -338h8q84 240 117 338l231 608h230l-447 -1130h-272z" />
    <glyph glyph-name="uniE6FD" unicode="&#xff57;" 
d="M487 0l-358 1130h238l182 -614q15 -62 44 -173t38 -146h12q56 205 90 317l185 616h221l190 -614q18 -63 51.5 -175t42.5 -144h11q14 53 39.5 159.5t39.5 159.5l179 614h221l-340 -1130h-283l-170 557q-30 98 -94 330h-10q-40 -154 -94 -332l-164 -555h-271z" />
    <glyph glyph-name="uniE6FE" unicode="&#xff58;" 
d="M463 0l416 590l-383 540h254l159 -227q21 -32 64.5 -96.5t62.5 -93.5h11q14 23 51.5 89.5t58.5 100.5l148 227h247l-385 -567l416 -563h-256l-176 240q-27 39 -81 113.5t-62 86.5h-9q-11 -18 -56 -89t-69 -111l-161 -240h-250z" />
    <glyph glyph-name="uniE6FF" unicode="&#xff59;" 
d="M653 -471q-86 0 -159 27l47 182q55 -19 98 -19q191 0 276 211l27 78l-508 1122h242l248 -583q35 -86 125 -318h10q25 70 110 318l217 583h228l-471 -1198q-40 -96 -83.5 -166t-102 -125.5t-134.5 -83.5t-170 -28z" />
    <glyph glyph-name="uniE700" unicode="&#xff5a;" 
d="M522 0v127l686 815h-614v188h926v-126l-686 -816h708v-188h-1020z" />
  </font>
</defs>
</svg>
